<svg width="18" height="24" viewBox="0 0 18 24" fill="none" xmlns="http://www.w3.org/2000/svg">
<path d="M5 0C3.67441 0.00158786 2.40356 0.528882 1.46622 1.46622C0.528882 2.40356 0.00158786 3.67441 0 5V23C0.000140886 23.1819 0.0498864 23.3603 0.143882 23.516C0.237877 23.6717 0.372562 23.7989 0.533438 23.8837C0.694314 23.9686 0.875288 24.008 1.05688 23.9976C1.23847 23.9873 1.4138 23.9276 1.564 23.825L3.67 22.386L5.776 23.825C5.94239 23.9389 6.13934 23.9999 6.341 23.9999C6.54266 23.9999 6.73961 23.9389 6.906 23.825L9.006 22.386L11.106 23.825C11.2725 23.9392 11.4696 24.0003 11.6715 24.0003C11.8734 24.0003 12.0705 23.9392 12.237 23.825L14.337 22.387L16.437 23.824C16.5871 23.9263 16.7623 23.9857 16.9436 23.996C17.125 24.0062 17.3057 23.9669 17.4664 23.8821C17.627 23.7974 17.7616 23.6706 17.8556 23.5151C17.9496 23.3597 17.9996 23.1816 18 23V5C17.9984 3.67441 17.4711 2.40356 16.5338 1.46622C15.5964 0.528882 14.3256 0.00158786 13 0L5 0ZM11 14H5C4.73478 14 4.48043 13.8946 4.29289 13.7071C4.10536 13.5196 4 13.2652 4 13C4 12.7348 4.10536 12.4804 4.29289 12.2929C4.48043 12.1054 4.73478 12 5 12H11C11.2652 12 11.5196 12.1054 11.7071 12.2929C11.8946 12.4804 12 12.7348 12 13C12 13.2652 11.8946 13.5196 11.7071 13.7071C11.5196 13.8946 11.2652 14 11 14ZM14 9C14 9.26522 13.8946 9.51957 13.7071 9.70711C13.5196 9.89464 13.2652 10 13 10H5C4.73478 10 4.48043 9.89464 4.29289 9.70711C4.10536 9.51957 4 9.26522 4 9C4 8.73478 4.10536 8.48043 4.29289 8.29289C4.48043 8.10536 4.73478 8 5 8H13C13.2652 8 13.5196 8.10536 13.7071 8.29289C13.8946 8.48043 14 8.73478 14 9Z" fill="#8B8B8B"/>
</svg>
