<svg width="30" height="28" viewBox="0 0 30 28" fill="none" xmlns="http://www.w3.org/2000/svg">
<path d="M18.75 21.4993H5C3.67392 21.4993 2.40215 20.9725 1.46447 20.0348C0.526784 19.0971 0 17.8253 0 16.4993V6.49927C0 4.84166 0.65848 3.25195 1.83058 2.07985C3.00269 0.907748 4.5924 0.249268 6.25 0.249268H12.5C13.3208 0.249268 14.1335 0.410929 14.8918 0.725021C15.6501 1.03911 16.3391 1.49948 16.9194 2.07985C17.4998 2.66022 17.9602 3.34921 18.2742 4.1075C18.5883 4.86578 18.75 5.67851 18.75 6.49927V21.4993ZM30 12.7493V11.4993C30 10.6785 29.8383 9.86578 29.5242 9.1075C29.2102 8.34921 28.7498 7.66022 28.1694 7.07985C27.5891 6.49948 26.9001 6.03911 26.1418 5.72502C25.3835 5.41093 24.5708 5.24927 23.75 5.24927H21.25V12.7493H30ZM21.25 15.2493V21.4993H25C26.3261 21.4993 27.5979 20.9725 28.5355 20.0348C29.4732 19.0971 30 17.8253 30 16.4993V15.2493H21.25ZM5.0725 23.9993C5.02671 24.2045 5.00241 24.414 5 24.6243C5 25.4531 5.32924 26.2479 5.91529 26.834C6.50134 27.42 7.2962 27.7493 8.125 27.7493C8.9538 27.7493 9.74866 27.42 10.3347 26.834C10.9208 26.2479 11.25 25.4531 11.25 24.6243C11.2476 24.414 11.2233 24.2045 11.1775 23.9993H5.0725ZM18.8225 23.9993C18.7767 24.2045 18.7524 24.414 18.75 24.6243C18.75 25.4531 19.0792 26.2479 19.6653 26.834C20.2513 27.42 21.0462 27.7493 21.875 27.7493C22.7038 27.7493 23.4987 27.42 24.0847 26.834C24.6708 26.2479 25 25.4531 25 24.6243C24.9976 24.414 24.9733 24.2045 24.9275 23.9993H18.8225Z" fill="#FBFBFB"/>
</svg>
