<svg width="81" height="18" viewBox="0 0 81 18" fill="none" xmlns="http://www.w3.org/2000/svg">
<path d="M4.5293 3.66992V17H0.662109V3.66992H4.5293ZM16.5898 3.66992V17H13.6309L8.06445 8.5625V17H6.76562V3.66992H9.2168L15.291 12.7812V3.66992H16.5898ZM27.5078 3.66992V5.00781H22.6738V9.45117H26.7754V10.7891H22.6738V17H18.8066V3.66992H27.5078ZM38.8359 3.66992V12.6152C38.8359 15.6816 37.14 17.2148 33.748 17.2148C30.3691 17.2148 28.6797 15.6816 28.6797 12.6152V3.66992H32.5469V12.7324C32.5469 13.9043 32.7129 14.7051 33.0449 15.1348C33.3835 15.5645 34.0052 15.7793 34.9102 15.7793C36.6615 15.7793 37.5371 14.7246 37.5371 12.6152V3.66992H38.8359ZM49.6562 7.40039L47.8594 7.73242C47.9375 7.37435 47.9766 7.07487 47.9766 6.83398C47.9766 5.28451 47.0358 4.50977 45.1543 4.50977C43.6699 4.50977 42.9277 5.04362 42.9277 6.11133C42.9277 6.91211 43.7578 7.59896 45.418 8.17188C48.6211 9.27214 50.2227 10.8997 50.2227 13.0547C50.2227 14.3177 49.7734 15.3333 48.875 16.1016C47.9766 16.8633 46.7819 17.2441 45.291 17.2441C41.9902 17.2441 40.3398 15.9648 40.3398 13.4062C40.3398 13.1979 40.3561 12.9408 40.3887 12.6348L42.2539 12.2246C42.1107 12.791 42.0391 13.2826 42.0391 13.6992C42.0391 15.3529 42.9863 16.1797 44.8809 16.1797C46.3978 16.1797 47.1562 15.584 47.1562 14.3926C47.1562 13.5072 46.248 12.7292 44.4316 12.0586C41.8079 11.0951 40.4961 9.55534 40.4961 7.43945C40.4961 6.24154 40.9323 5.27799 41.8047 4.54883C42.6836 3.81315 43.8359 3.44531 45.2617 3.44531C48.1914 3.44531 49.6562 4.76367 49.6562 7.40039ZM55.7988 3.66992V17H51.9316V3.66992H55.7988ZM63.5625 3.43555C67.4427 3.43555 69.3828 5.73372 69.3828 10.3301C69.3828 14.9264 67.4069 17.2246 63.4551 17.2246C59.5033 17.2246 57.5273 14.8743 57.5273 10.1738C57.5273 5.68164 59.5391 3.43555 63.5625 3.43555ZM63.4551 4.5C62.7259 4.5 62.2311 4.90365 61.9707 5.71094C61.7168 6.51172 61.5898 8.05143 61.5898 10.3301C61.5898 12.6087 61.7168 14.1517 61.9707 14.959C62.2311 15.7598 62.7259 16.1602 63.4551 16.1602C64.1842 16.1602 64.6758 15.7598 64.9297 14.959C65.1901 14.1517 65.3203 12.6087 65.3203 10.3301C65.3203 8.05794 65.1901 6.51823 64.9297 5.71094C64.6758 4.90365 64.1842 4.5 63.4551 4.5ZM63.0059 2.5957H62.166L63.5527 0.0078125H66.3555L63.0059 2.5957ZM80.8477 3.66992V17H77.8887L72.3223 8.5625V17H71.0234V3.66992H73.4746L79.5488 12.7812V3.66992H80.8477Z" fill="#101F2D"/>
</svg>
