<svg width="114" height="183" viewBox="0 0 114 183" fill="none" xmlns="http://www.w3.org/2000/svg">
<path d="M113.294 1H1V182.072H113.294V1Z" fill="#101F2D"/>
<path d="M113.294 1H1V182.072H113.294V1Z" stroke="#101F2D"/>
<path d="M10.4706 172.678H10.6749C10.6749 172.391 10.6749 172.171 10.6749 172.024C10.6749 171.877 10.6749 171.73 10.6976 171.586L10.9397 168.165C10.97 167.701 10.9927 167.393 11.0041 167.242L11.0532 166.698L11.197 167.066L13.1911 172.674H13.6754L15.5559 168.4L16.3127 166.661V167.279C16.3127 167.646 16.3127 168.091 16.3127 168.587L16.237 172.682H16.6683C16.6507 172.116 16.6418 171.347 16.6418 170.377C16.6418 170.083 16.6418 169.642 16.6418 169.021L16.691 166.338H16.3959H16.1008C16.0062 166.58 15.9305 166.768 15.8775 166.9L13.4673 172.34L13.1381 171.436L11.9349 168.01C11.7532 167.488 11.6322 167.139 11.5754 166.97L11.3749 166.338H11.0797H10.7846L10.6446 168.418L10.3797 171.836L10.2852 172.696L10.4706 172.678Z" stroke="white" stroke-width="0.5"/>
<path d="M22.0336 168.285C22.1952 168.241 22.3595 168.207 22.5254 168.182C22.7321 168.152 22.9408 168.138 23.1498 168.138C23.3339 168.138 23.5177 168.155 23.6984 168.19C23.8561 168.218 24.0051 168.28 24.1335 168.374C24.2376 168.443 24.3211 168.538 24.3757 168.649C24.4206 168.745 24.4439 168.849 24.4438 168.954C24.4409 169.108 24.3909 169.258 24.3 169.384C24.1983 169.531 24.0551 169.646 23.8876 169.715C23.7075 169.798 23.5201 169.864 23.3276 169.914L22.5709 170.112C22.34 170.182 22.1244 170.255 21.9238 170.336C21.7565 170.401 21.5978 170.485 21.4509 170.586C21.3391 170.658 21.2395 170.746 21.1557 170.847C21.0703 170.958 21.005 171.082 20.9628 171.215C20.92 171.333 20.8983 171.457 20.8984 171.582C20.8979 171.75 20.9327 171.917 21.0006 172.071C21.0743 172.23 21.1858 172.37 21.326 172.479C21.4826 172.602 21.6688 172.684 21.8671 172.718C22.1005 172.759 22.3374 172.779 22.5746 172.777C22.7109 172.777 22.8584 172.777 23.0098 172.777C23.1611 172.777 23.3654 172.729 23.6114 172.681C23.6303 172.564 23.653 172.442 23.6833 172.314C23.4827 172.38 23.3314 172.424 23.2292 172.45C23.1271 172.475 23.0098 172.49 22.8925 172.505C22.767 172.52 22.6406 172.527 22.5141 172.527C22.2921 172.532 22.0708 172.501 21.8595 172.435C21.681 172.376 21.5244 172.267 21.4092 172.123C21.2909 171.972 21.2283 171.787 21.2314 171.597C21.2324 171.471 21.2581 171.346 21.3071 171.229C21.3525 171.122 21.4209 171.026 21.5076 170.946C21.6192 170.836 21.7467 170.742 21.886 170.667C22.0799 170.568 22.2825 170.485 22.4914 170.421C22.6087 170.384 22.8017 170.325 23.0703 170.252C23.339 170.178 23.5092 170.13 23.5773 170.105L23.8081 170.024C23.8914 169.991 23.9633 169.958 24.02 169.928C24.0789 169.898 24.1346 169.862 24.1865 169.822C24.2357 169.785 24.3076 169.722 24.4022 169.642C24.4022 169.939 24.3681 170.255 24.3606 170.597C24.353 170.939 24.3341 171.255 24.3189 171.549C24.3038 171.843 24.2698 172.229 24.2281 172.703H24.6065V172.292C24.6065 172.111 24.6065 171.817 24.6292 171.406C24.6519 170.994 24.6595 170.671 24.6784 170.384C24.6973 170.097 24.7087 169.855 24.72 169.62C24.7314 169.384 24.72 169.186 24.72 169.028C24.7205 168.877 24.6963 168.727 24.6481 168.583C24.5951 168.427 24.4933 168.291 24.3568 168.194C24.1884 168.074 23.9944 167.992 23.7892 167.955C23.5406 167.903 23.2868 167.878 23.0325 167.881C22.8008 167.88 22.5693 167.896 22.34 167.929C22.0679 167.973 21.7988 168.033 21.5341 168.109C21.5254 168.232 21.509 168.355 21.4849 168.477C21.7309 168.388 21.9011 168.326 22.0336 168.285Z" stroke="white" stroke-width="0.5"/>
<path d="M29.3608 172.677H29.5576C29.5576 172.35 29.5576 171.843 29.5576 171.155C29.5576 170.645 29.5878 170.192 29.6181 169.796C29.634 169.575 29.6759 169.357 29.743 169.145C29.7929 168.992 29.867 168.847 29.9624 168.715C30.0442 168.594 30.1451 168.486 30.2613 168.395C30.3587 168.319 30.4688 168.259 30.5867 168.219C30.7085 168.178 30.8363 168.157 30.9651 168.156C31.1432 168.162 31.3198 168.189 31.4911 168.237C31.4853 168.132 31.4853 168.026 31.4911 167.921C31.3671 167.892 31.2401 167.877 31.1127 167.877C30.9468 167.876 30.7815 167.896 30.6208 167.936C30.4765 167.97 30.3387 168.026 30.2121 168.101C30.0949 168.176 29.9903 168.268 29.9019 168.373C29.7901 168.524 29.695 168.685 29.6181 168.855L29.6559 167.973H29.4895H29.3192V168.395C29.3192 168.825 29.3192 169.498 29.27 170.369C29.2208 171.24 29.1981 172.023 29.1641 172.677H29.3608Z" stroke="white" stroke-width="0.5"/>
<path d="M35.5709 172.677H35.7525C35.7525 172.35 35.7525 171.843 35.7525 171.155C35.7525 170.645 35.7828 170.192 35.8168 169.796C35.8298 169.575 35.8704 169.356 35.9379 169.145C35.9879 168.992 36.0619 168.847 36.1574 168.715C36.2403 168.595 36.341 168.487 36.4563 168.395C36.5555 168.32 36.6667 168.26 36.7855 168.219C36.9071 168.178 37.035 168.157 37.1638 168.156C37.3432 168.162 37.5211 168.189 37.6936 168.237C37.6815 168.132 37.6752 168.027 37.6747 167.921C37.5507 167.892 37.4238 167.877 37.2963 167.877C37.1317 167.876 36.9675 167.896 36.8082 167.936C36.6625 167.969 36.5233 168.025 36.3958 168.101C36.2789 168.175 36.1754 168.267 36.0893 168.373C35.9761 168.523 35.8797 168.685 35.8017 168.855L35.8433 167.973H35.6731H35.5066V168.395C35.5066 168.825 35.4877 169.498 35.4536 170.369C35.4196 171.24 35.3855 172.023 35.3477 172.677H35.5709Z" stroke="white" stroke-width="0.5"/>
<path d="M44.4206 168.242C44.6492 168.315 44.8558 168.441 45.0222 168.61C45.2069 168.799 45.3374 169.033 45.4006 169.286C45.4857 169.579 45.5277 169.882 45.5255 170.187C45.528 170.517 45.4847 170.845 45.3968 171.164C45.3308 171.447 45.2016 171.711 45.0184 171.94C44.8534 172.141 44.6369 172.297 44.3903 172.392C43.9303 172.564 43.4225 172.573 42.9563 172.418C42.7268 172.336 42.5206 172.202 42.3547 172.028C42.1655 171.832 42.0279 171.595 41.9536 171.337C41.8657 171.052 41.8223 170.756 41.825 170.459C41.8216 170.045 41.8959 169.634 42.0444 169.246C42.1685 168.903 42.4104 168.612 42.7293 168.422C43.0327 168.244 43.3809 168.15 43.7357 168.15C43.9674 168.148 44.1982 168.179 44.4206 168.242V168.242ZM42.5666 168.176C42.1941 168.381 41.9055 168.704 41.7493 169.091C41.5634 169.526 41.4707 169.992 41.4769 170.462C41.4755 170.74 41.5111 171.017 41.5828 171.286C41.6458 171.529 41.752 171.761 41.8968 171.969C42.0275 172.153 42.1916 172.313 42.3812 172.44C42.5621 172.559 42.7632 172.646 42.9752 172.697C43.1855 172.749 43.4016 172.774 43.6184 172.774C43.9211 172.776 44.2219 172.728 44.5076 172.631C44.7906 172.531 45.0413 172.359 45.2341 172.135C45.4519 171.878 45.6141 171.582 45.7109 171.264C45.8262 170.907 45.8836 170.535 45.8811 170.161C45.8831 169.823 45.8294 169.487 45.7222 169.165C45.6324 168.879 45.4727 168.618 45.2568 168.404C45.0616 168.213 44.8213 168.072 44.5568 167.992C44.2912 167.911 44.0142 167.87 43.7357 167.871C43.3255 167.873 42.9228 167.978 42.5666 168.176V168.176Z" stroke="white" stroke-width="0.5"/>
<path d="M53.8135 169.645C53.8111 170.033 53.7858 170.421 53.7379 170.806C53.7052 171.009 53.6441 171.207 53.5562 171.394C53.4781 171.571 53.3763 171.736 53.2536 171.887C53.146 172.02 53.0184 172.136 52.8752 172.232C52.7386 172.321 52.5895 172.391 52.4325 172.438C52.2708 172.487 52.1024 172.512 51.933 172.512C51.6256 172.514 51.3247 172.426 51.0703 172.258C50.8206 172.098 50.6277 171.867 50.5179 171.596C50.3983 171.307 50.3391 170.997 50.3439 170.685C50.3384 170.224 50.4393 169.768 50.639 169.351C50.8209 168.963 51.1277 168.643 51.513 168.439C51.9249 168.231 52.3842 168.126 52.8487 168.134C52.9752 168.135 53.1016 168.144 53.2271 168.16C53.4263 168.186 53.6236 168.225 53.8173 168.278C53.8299 168.623 53.8287 169.079 53.8135 169.645ZM53.8135 174.735H53.9914L54.0481 171.971L54.1427 169.031C54.1427 168.895 54.1427 168.759 54.1654 168.619L54.2108 168.02L53.806 167.954L53.4541 167.903H53.1968H52.9319C52.5492 167.898 52.1676 167.943 51.7968 168.035C51.4477 168.128 51.127 168.302 50.8622 168.542C50.5711 168.804 50.348 169.129 50.2114 169.49C50.0605 169.872 49.9835 170.277 49.9844 170.685C49.9834 170.965 50.0255 171.244 50.1093 171.512C50.1785 171.762 50.3059 171.994 50.4817 172.189C50.6575 172.384 50.877 172.537 51.1233 172.637C51.3701 172.742 51.637 172.796 51.9065 172.795C52.116 172.794 52.3241 172.762 52.5233 172.699C52.7129 172.64 52.8917 172.552 53.053 172.438C53.1957 172.34 53.3231 172.222 53.4314 172.089C53.5497 171.919 53.6534 171.739 53.7416 171.552L53.6962 173.022V173.206L53.6735 173.677L53.6168 174.779L53.8135 174.735Z" stroke="white" stroke-width="0.5"/>
<path d="M62.617 171.944V171.239L62.7835 167.979H62.6018H62.4164C62.4164 168.469 62.4051 169.009 62.3824 169.599C62.3824 170.217 62.3332 170.64 62.2992 170.875C62.2765 171.077 62.2242 171.275 62.144 171.463C62.0712 171.633 61.9744 171.793 61.8564 171.937C61.7621 172.054 61.6483 172.154 61.5197 172.235C61.3703 172.324 61.2085 172.392 61.0392 172.437C60.8424 172.492 60.6385 172.519 60.4337 172.518C60.2363 172.518 60.0394 172.496 59.8473 172.451C59.6634 172.41 59.4898 172.334 59.3365 172.227C59.1897 172.126 59.0786 171.984 59.0186 171.819C58.9533 171.626 58.9225 171.423 58.9278 171.22C58.9278 171.011 58.9505 170.485 58.9997 169.643C59.0489 168.802 59.083 168.247 59.1057 167.979H58.9278H58.75C58.75 168.453 58.7311 169.063 58.6894 169.816C58.6478 170.57 58.6251 171.029 58.6251 171.22C58.6227 171.443 58.6559 171.665 58.7235 171.878C58.7907 172.077 58.9139 172.254 59.0792 172.389C59.2555 172.533 59.4622 172.637 59.6846 172.694C59.923 172.754 60.1685 172.784 60.4148 172.782C60.5668 172.782 60.7186 172.771 60.8689 172.749C61.0198 172.728 61.1682 172.693 61.3116 172.643C61.4459 172.6 61.5733 172.54 61.69 172.462C61.7875 172.402 61.8754 172.327 61.951 172.242C62.0155 172.174 62.0726 172.101 62.1213 172.021C62.1869 171.911 62.245 171.797 62.2954 171.68L62.2575 172.69H62.5943C62.6018 172.48 62.6094 172.231 62.617 171.944Z" stroke="white" stroke-width="0.5"/>
<path d="M67.4159 172.677H67.5975C67.5975 172.169 67.6202 171.405 67.658 170.387C67.6959 169.369 67.7413 168.549 67.7829 167.972H67.5975H67.4159C67.4159 168.34 67.3932 169.075 67.3478 170.243C67.3024 171.412 67.2645 172.213 67.2305 172.677H67.4159ZM67.6315 166.774H67.8661V166.314H67.6315H67.4007V166.774H67.6315Z" stroke="white" stroke-width="0.5"/>
<path d="M72.371 172.678H72.5527C72.5527 172.272 72.564 171.772 72.5867 171.179C72.6094 170.587 72.6359 170.161 72.67 169.9C72.6957 169.658 72.7542 169.421 72.844 169.194C72.9313 168.982 73.0598 168.789 73.2224 168.624C73.3811 168.475 73.5689 168.357 73.7748 168.279C74.0182 168.197 74.2741 168.156 74.5316 168.158C74.7357 168.158 74.9391 168.182 75.137 168.231C75.3214 168.273 75.4944 168.353 75.644 168.466C75.7811 168.569 75.8848 168.708 75.9429 168.867C76.0026 169.045 76.032 169.231 76.0299 169.418C76.0299 169.613 76.0299 169.933 75.9921 170.374L75.9278 171.565C75.9278 171.932 75.8824 172.3 75.8521 172.667H76.204V171.91L76.3024 169.789C76.3024 169.602 76.3024 169.459 76.3024 169.363C76.3041 169.159 76.2735 168.956 76.2116 168.76C76.152 168.568 76.0395 168.395 75.8862 168.261C75.7166 168.111 75.5109 168.007 75.2883 167.955C75.0409 167.895 74.7866 167.866 74.5316 167.867C74.3771 167.867 74.2228 167.878 74.07 167.9C73.9154 167.925 73.7635 167.963 73.6159 168.014C73.4806 168.059 73.3531 168.124 73.2375 168.205C73.1382 168.277 73.0469 168.358 72.9651 168.448C72.8973 168.525 72.8366 168.607 72.7835 168.694C72.7419 168.771 72.6851 168.882 72.617 169.025L72.6775 167.963H72.5073H72.3294C72.3294 168.073 72.3294 168.246 72.3294 168.485L72.2878 169.823L72.1289 172.667L72.371 172.678Z" stroke="white" stroke-width="0.5"/>
<path d="M81.194 169.278C81.2363 169.16 81.2908 169.047 81.3567 168.94C81.4312 168.818 81.5243 168.708 81.6329 168.613C81.7458 168.512 81.8733 168.428 82.0113 168.363C82.1459 168.296 82.2881 168.244 82.4351 168.209C82.5912 168.172 82.7512 168.153 82.9119 168.153C83.0534 168.152 83.1944 168.168 83.3318 168.201C83.4641 168.229 83.5916 168.274 83.7102 168.337C83.8167 168.397 83.9125 168.472 83.994 168.561C84.0788 168.655 84.1489 168.76 84.2021 168.874C84.2584 168.991 84.2979 169.114 84.3194 169.241C84.3455 169.406 84.3581 169.571 84.3572 169.738H81.107C81.127 169.583 81.156 169.43 81.194 169.278ZM82.9043 172.531C82.6455 172.532 82.3889 172.486 82.1475 172.395C81.909 172.308 81.696 172.165 81.527 171.98C81.3506 171.779 81.2214 171.543 81.1486 171.289C81.0639 171.011 81.0205 170.722 81.02 170.432C81.02 170.329 81.02 170.175 81.0465 169.976H84.6599C84.6639 169.905 84.6639 169.834 84.6599 169.763C84.6684 169.405 84.5893 169.05 84.4291 168.727C84.2915 168.452 84.0639 168.23 83.7821 168.095C83.4919 167.964 83.175 167.898 82.8551 167.904C82.4085 167.888 81.9692 168.018 81.6065 168.271C81.28 168.511 81.0306 168.836 80.8875 169.208C80.7389 169.596 80.6645 170.007 80.6681 170.421C80.6653 170.736 80.7086 171.049 80.7967 171.351C80.8792 171.64 81.0251 171.908 81.2243 172.138C81.4141 172.366 81.6638 172.54 81.947 172.641C82.2597 172.746 82.5887 172.797 82.9194 172.792C83.1259 172.792 83.332 172.777 83.5362 172.748C83.7658 172.712 83.9923 172.66 84.2135 172.59C84.2135 172.472 84.2437 172.354 84.2664 172.222C83.8374 172.404 83.3761 172.504 82.9081 172.516L82.9043 172.531Z" stroke="white" stroke-width="0.5"/>
<path d="M88.9588 172.677H89.1442C89.1442 172.35 89.1442 171.843 89.1442 171.155C89.1442 170.645 89.1745 170.192 89.2086 169.796C89.2226 169.575 89.2645 169.356 89.3334 169.145C89.382 168.992 89.4548 168.847 89.5491 168.715C89.632 168.595 89.7327 168.487 89.848 168.395C90.0533 168.237 90.3086 168.153 90.5707 168.156C90.7501 168.162 90.928 168.189 91.1004 168.237C91.0947 168.132 91.0947 168.026 91.1004 167.921C90.9765 167.892 90.8495 167.877 90.7221 167.877C90.5574 167.876 90.3933 167.896 90.234 167.936C90.0883 167.969 89.9491 168.025 89.8215 168.101C89.7047 168.175 89.6011 168.267 89.515 168.373C89.4032 168.524 89.3069 168.685 89.2275 168.855L89.2691 167.973H89.0988H88.9323V168.395C88.9323 168.825 88.9323 169.498 88.8832 170.369C88.834 171.24 88.8113 172.023 88.7734 172.677H88.9588Z" stroke="white" stroke-width="0.5"/>
<path d="M95.2401 167.377C95.2728 167.373 95.3058 167.373 95.3385 167.377C95.4141 167.227 95.5428 167.01 95.7168 166.705L96.0952 166.076H95.8304H95.5655C95.4444 166.473 95.3574 166.749 95.3082 166.907C95.259 167.065 95.2061 167.219 95.1644 167.377C95.1896 167.374 95.215 167.374 95.2401 167.377V167.377ZM95.2401 172.677H95.4217C95.4217 172.17 95.4444 171.406 95.4823 170.387C95.5201 169.369 95.5655 168.55 95.6071 167.973H95.4217H95.2401C95.2401 168.34 95.2174 169.075 95.172 170.244C95.1266 171.413 95.0887 172.214 95.0547 172.677H95.2401Z" stroke="white" stroke-width="0.5"/>
<path d="M100.784 168.285C100.945 168.241 101.11 168.207 101.275 168.182C101.482 168.152 101.691 168.137 101.9 168.138C102.084 168.138 102.268 168.155 102.448 168.19C102.606 168.218 102.755 168.28 102.884 168.374C102.988 168.443 103.071 168.538 103.126 168.649C103.171 168.745 103.194 168.849 103.194 168.954C103.191 169.108 103.141 169.258 103.05 169.384C102.948 169.531 102.805 169.646 102.638 169.715C102.458 169.798 102.27 169.864 102.078 169.914L101.321 170.112C101.09 170.182 100.874 170.255 100.674 170.336C100.507 170.401 100.348 170.485 100.201 170.586C100.089 170.658 99.9895 170.746 99.9057 170.847C99.8203 170.958 99.755 171.082 99.7128 171.215C99.67 171.333 99.6483 171.457 99.6484 171.582C99.6479 171.75 99.6827 171.917 99.7506 172.071C99.8243 172.23 99.9358 172.37 100.076 172.479C100.232 172.603 100.419 172.685 100.617 172.718C100.851 172.759 101.087 172.779 101.325 172.777C101.461 172.777 101.608 172.777 101.76 172.777C101.911 172.777 102.115 172.729 102.361 172.681C102.361 172.564 102.403 172.442 102.433 172.314C102.233 172.38 102.081 172.424 101.979 172.45C101.877 172.475 101.76 172.49 101.642 172.505C101.517 172.52 101.391 172.527 101.264 172.527C101.042 172.532 100.821 172.501 100.61 172.435C100.431 172.376 100.274 172.267 100.159 172.123C100.041 171.972 99.9783 171.787 99.9814 171.597C99.9824 171.471 100.008 171.346 100.057 171.229C100.102 171.122 100.171 171.026 100.258 170.946C100.369 170.836 100.497 170.742 100.636 170.667C100.83 170.568 101.032 170.485 101.241 170.421C101.359 170.384 101.548 170.325 101.82 170.252C102.093 170.178 102.255 170.13 102.327 170.105L102.558 170.024C102.641 169.991 102.713 169.958 102.77 169.928C102.829 169.898 102.885 169.862 102.936 169.822C102.986 169.785 103.058 169.722 103.152 169.642C103.152 169.939 103.118 170.255 103.107 170.597C103.095 170.939 103.084 171.255 103.069 171.549C103.054 171.843 103.02 172.229 102.978 172.703H103.357V172.292C103.357 172.111 103.357 171.817 103.379 171.406C103.402 170.994 103.409 170.671 103.428 170.384C103.447 170.097 103.459 169.855 103.47 169.62C103.481 169.384 103.47 169.186 103.47 169.028C103.471 168.877 103.446 168.727 103.398 168.583C103.345 168.427 103.243 168.291 103.107 168.194C102.938 168.074 102.744 167.992 102.539 167.955C102.291 167.903 102.037 167.878 101.782 167.881C101.551 167.88 101.319 167.896 101.09 167.929C100.818 167.973 100.549 168.033 100.284 168.109C100.275 168.232 100.259 168.355 100.235 168.477C100.481 168.388 100.651 168.326 100.784 168.285Z" stroke="white" stroke-width="0.5"/>
<path d="M15.9236 145.857H11.5117V161.371H15.9236V145.857Z" fill="white"/>
<path d="M29.6451 145.857V161.371H26.27L19.9209 151.554V161.371H18.4414V145.857H21.2376L28.1618 156.461V145.857H29.6451Z" fill="white"/>
<path d="M42.0889 145.857V147.412H36.5798V152.609H41.2679V154.164H36.5798V161.371H32.168V145.857H42.0889Z" fill="white"/>
<path d="M54.9815 145.857V156.27C54.9815 159.847 53.0505 161.636 49.1886 161.636C45.3267 161.636 43.4058 159.847 43.4259 156.27V145.857H47.834V156.413C47.834 157.784 48.0232 158.718 48.4054 159.221C48.7875 159.725 49.4913 159.956 50.5205 159.956C52.5031 159.956 53.4958 158.724 53.4983 156.259V145.857H54.9815Z" fill="white"/>
<path d="M67.2746 150.202L65.2276 150.569C65.3186 150.232 65.3694 149.885 65.3789 149.537C65.3789 147.755 64.3094 146.865 62.1703 146.865C60.4827 146.865 59.639 147.483 59.639 148.721C59.639 149.647 60.5811 150.442 62.4654 151.106C66.0978 152.383 67.9153 154.269 67.9178 156.766C67.9464 157.425 67.8256 158.083 67.5641 158.692C67.3026 159.301 66.9067 159.847 66.4043 160.291C65.3776 161.175 64.018 161.618 62.3254 161.618C58.5694 161.618 56.6914 160.134 56.6914 157.167C56.6914 156.928 56.7103 156.63 56.7444 156.274L58.8671 155.796C58.7291 156.355 58.6542 156.927 58.6438 157.501C58.6438 159.412 59.7209 160.368 61.8751 160.368C63.6005 160.368 64.462 159.677 64.4594 158.295C64.4594 157.271 63.4277 156.37 61.3643 155.594C58.3777 154.476 56.8844 152.693 56.8844 150.242C56.863 149.609 56.9878 148.979 57.2497 148.398C57.5115 147.817 57.9039 147.301 58.3979 146.887C59.3892 146.036 60.6959 145.611 62.3179 145.611C65.6476 145.611 67.3124 147.135 67.3124 150.184" fill="white"/>
<path d="M74.2829 145.857H69.8711V161.371H74.2829V145.857Z" fill="white"/>
<path d="M82.4821 144.653H81.521L83.1026 141.621H86.2923L82.4821 144.653ZM83.1177 145.602C87.5271 145.602 89.7317 148.276 89.7317 153.625C89.7317 158.974 87.4867 161.647 82.9967 161.645C78.5041 161.645 76.2578 158.91 76.2578 153.441C76.2578 148.215 78.5445 145.602 83.1177 145.602ZM82.9967 146.855C82.1605 146.855 81.6005 147.322 81.3053 148.255C81.0102 149.189 80.8664 150.979 80.8664 153.625C80.8664 156.271 81.014 158.061 81.3053 158.995C81.5967 159.928 82.1605 160.395 82.9967 160.395C83.8329 160.395 84.3891 159.928 84.6804 158.995C84.9718 158.061 85.1231 156.271 85.1231 153.625C85.1231 150.979 84.9756 149.196 84.6804 148.259C84.3853 147.322 83.8253 146.855 82.9967 146.855Z" fill="white"/>
<path d="M102.782 145.857V161.371H99.4067L93.0651 151.554V161.371H91.5781V145.857H94.3743L101.302 156.461V145.857H102.782Z" fill="white"/>
<path d="M54.9262 9.39062H11.3828V52.2274H54.9262V9.39062Z" fill="#94203C"/>
<path d="M102.911 9.39062H59.3672V52.2274H102.911V9.39062Z" fill="#E4A55B"/>
<path d="M54.9262 57.2559H11.3828V139.713H54.9262V57.2559Z" fill="#B8C65A"/>
<path d="M102.911 57.2559H59.3672V139.713H102.911V57.2559Z" fill="#00AEEC"/>
<path d="M27.2045 48.3272C26.3077 38.0361 27.5829 25.5655 37.2239 17.928C41.7644 14.3372 47.8789 12.6502 54.088 12.279C60.4523 11.9114 67.4825 12.6244 72.8781 15.5648C78.2737 18.5051 80.7256 23.5771 81.7812 28.6087C83.2947 35.886 82.4207 43.4206 81.8985 50.7456C81.8683 51.1389 81.9326 51.6939 81.8985 52.0026C82.2769 46.7137 82.6553 41.4285 82.5796 36.1286C82.5229 31.5674 82.1407 26.8997 80.3094 22.5554C78.6105 18.5124 75.3489 15.1678 70.6457 13.2052C64.7127 10.7279 57.1945 10.4449 50.7205 11.2939C40.6557 12.6171 33.5196 18.3176 30.0499 25.933C26.6445 33.3904 26.5121 41.7372 27.1969 49.5805C27.1704 49.2755 27.2272 48.7168 27.1969 48.3272" fill="white"/>
<path d="M39.5794 100.621C37.9524 96.3209 38.9815 91.767 40.9604 88.1247C43.0037 84.3952 46.1002 81.3095 49.8863 79.2303C53.7693 77.1547 58.1643 76.1541 62.5925 76.3376C67.0206 76.521 71.3119 77.8813 74.999 80.2704C76.9614 81.5546 78.6343 83.2133 79.9158 85.1456C81.1973 87.0778 82.0605 89.2431 82.453 91.5098C83.2362 96.0195 82.3054 100.415 80.6784 104.307C77.3478 112.17 71.1055 118.535 63.1824 122.148C63.1824 122.177 63.1824 122.232 63.0689 122.313C62.5991 122.655 62.0715 122.915 61.51 123.081C60.8856 123.284 60.1667 123.482 59.5008 123.625C55.6875 124.411 51.7588 124.514 47.9074 123.93C40.7864 123.026 34.2519 119.829 29.0757 115.444C33.2591 119.029 38.2025 121.676 43.5561 123.199C45.1831 123.567 46.4658 123.971 46.2539 124.118C46.042 124.265 44.4869 124.155 42.7766 123.651C27.6 119.516 16.0937 104.738 15.1061 91.7046C13.5283 83.6187 16.3169 74.1178 23.0179 68.6856C29.4087 62.9299 37.9826 60.46 46.0458 59.9822C62.1514 59.3157 78.0082 64.0138 90.9891 73.2982C91.458 73.6302 91.8915 74.007 92.2832 74.4229C92.5632 74.7647 92.4231 74.7169 91.9615 74.3898C85.2908 69.3434 77.6779 65.9106 69.5882 63.5547C61.4986 61.2613 52.8074 60.0521 43.9685 60.9819C35.2319 61.8824 26.0298 65.6313 20.3769 72.9343C14.5802 80.4174 14.8034 90.6791 18.2882 98.8165C19.1085 100.836 20.1008 102.786 21.2547 104.646C18.2012 99.1877 16.2299 92.9211 16.5893 86.4083C16.4599 85.396 16.4841 84.3706 16.6612 83.3651C17.0816 80.2674 18.1837 77.294 19.8926 74.647C19.7866 74.7426 19.7109 74.7867 19.6731 74.7683C19.552 74.6838 20.0515 73.5738 21.0277 72.5043C26.2757 66.3223 34.2481 62.8711 42.2167 62.0441L42.7766 61.9853C52.6711 60.8349 62.6602 62.5807 71.8812 65.9621C81.0303 69.4464 90.0167 74.4155 96.1766 82.7513C97.7485 84.9122 98.8848 87.3429 99.5252 89.9146C100.03 92.3587 100.337 94.8374 100.445 97.3279C100.661 102.281 100.105 107.238 98.795 112.029C96.2599 121.611 90.1453 130.73 81.053 136.089C80.5424 136.463 79.9809 136.768 79.3844 136.993C78.919 137.162 78.9455 137.048 79.4298 136.743C79.3882 136.699 79.2065 136.691 79.3692 136.596C92.741 128.657 98.935 114.176 98.8782 99.0811C98.7572 93.9355 98.2425 88.2975 94.9847 83.8723C98.1328 88.5952 98.148 94.1119 97.9058 98.5739C98.2842 111.805 92.3021 126.088 80.6368 132.961L81.1438 132.733C80.1638 133.398 79.1384 133.836 79.0438 133.733C78.8698 133.674 79.6341 133.104 80.6254 132.468C90.7961 125.445 96.0745 113.338 96.5172 101.455C96.608 95.4829 96.3166 89.2604 92.6994 84.6404C89.2297 79.8624 84.1443 76.187 78.7714 73.2173C67.9385 67.469 55.1911 64.1611 42.9507 65.4696C30.9108 66.4215 19.0715 75.1285 19.5974 87.0221C19.9758 105.307 38.9134 122.802 57.624 118.502C60.3975 117.91 62.1645 117.182 62.418 117.458C62.4748 117.826 60.6586 119.141 57.73 119.77C38.2891 124.111 19.0563 106.7 18.0839 87.8344C17.9628 83.6885 18.8596 79.4581 21.1488 75.9665C23.3698 72.4565 26.7752 69.6559 30.4908 67.6491C24.5995 70.6629 19.5407 75.7533 18.0499 82.222C16.0521 92.1787 20.5434 102.587 27.5773 110.229C35.8751 119.516 49.6441 124.338 61.631 119.84C67.4088 117.407 72.2255 113.015 75.5476 107.748C78.7979 102.554 80.8222 95.8761 78.5746 89.8154C76.3347 83.9678 70.3337 80.9614 64.9834 80.4395C59.5084 79.7301 54.1998 81.2076 50.363 84.2545C46.5415 87.2316 43.9307 91.745 43.9307 95.9864C43.9307 100.312 47.0447 102.767 51.9409 103.253C52.7808 103.334 53.7646 103.429 54.1014 103.591C54.5214 103.723 54.0484 103.841 53.1895 103.804C48.229 103.767 43.9799 101.727 43.4047 97.2875C42.7691 92.9211 45.2247 87.9115 49.0539 84.5669C51.0871 82.8085 53.473 81.4779 56.0615 80.6588C58.6499 79.8396 61.3849 79.5497 64.0943 79.8073C69.6488 80.2226 75.8655 82.7917 78.7222 88.5143C81.7076 94.5934 79.9519 101.698 76.8303 107.222C73.6028 112.827 68.7369 117.576 62.7132 120.391C50.0717 125.658 35.2092 120.531 26.6276 110.651C25.4323 109.34 24.3251 107.955 23.3131 106.505C26.4594 111.383 30.6767 115.525 35.6632 118.634C45.4669 124.298 59.0505 125.107 68.5818 117.682C73.2635 114.225 76.968 109.673 79.3503 104.451C81.6433 99.2685 82.7065 92.7888 79.7287 87.0846C77.3903 82.7145 73.1034 79.8698 68.5969 78.6312C64.2116 77.3448 59.3532 77.1978 54.9414 78.554C46.2653 81.1268 38.8151 89.3009 40.0864 98.8385C40.5594 101.202 41.8421 103.212 41.9783 103.69C42.1145 104.168 40.5291 103.12 39.5794 100.621Z" fill="white"/>
<path d="M71.5992 67.937C67.9958 66.6846 64.3015 65.6944 60.5469 64.9746C67.9043 66.5027 74.9487 69.2092 81.3915 72.9833C87.7028 76.7984 93.8779 81.7785 96.5681 88.7875C94.8881 83.5905 90.7941 79.3381 86.352 75.9236C81.8618 72.5699 76.8902 69.8729 71.5954 67.9186" fill="white"/>
<path d="M85.2481 79.0058C79.1941 73.9742 71.2482 70.3245 63.8813 68.7367C63.5294 68.6559 63.3099 68.6448 63.4726 68.7367C63.7792 68.8886 64.1048 69.001 64.4413 69.0712C71.4752 70.6332 79.16 74.2167 84.9454 78.9947C85.1485 79.1999 85.3899 79.3658 85.6567 79.4836C85.7437 79.4836 85.5319 79.2483 85.2481 78.9984" fill="white"/>
<path d="M58.5986 67.873C46.5777 66.017 32.9486 67.7664 25.8276 76.4588C18.8617 84.5005 22.5509 98.6361 30.9205 107.395C37.6669 114.745 47.569 118.829 56.9943 116.752C65.5645 114.988 73.7941 105.969 75.1109 97.0483C76.0266 91.028 72.8066 86.669 67.4753 85.129C67.3693 85.129 66.8245 85.0445 67.0477 85.1842C67.19 85.2754 67.3439 85.3483 67.5055 85.401C67.3126 85.3569 67.8045 85.5627 67.952 85.6215C73.2001 87.5033 75.7201 91.8072 74.6455 97.5996C73.6466 103.245 69.7266 108.957 64.7434 112.669C63.5164 113.603 62.1925 114.412 60.7932 115.08C60.2106 115.386 59.5969 115.632 58.9618 115.815C58.2051 115.995 57.4483 116.241 56.6727 116.377C53.6183 116.983 50.4714 117 47.4101 116.429C41.2955 115.308 35.601 111.853 31.227 107.24C22.8384 98.6728 19.0207 84.4528 26.066 76.4661C33.2816 67.7775 47.1149 66.175 59.1813 68.1597C59.5067 68.2112 59.6959 68.1891 59.5862 68.1193C59.2657 68.0055 58.9351 67.9206 58.5986 67.8657" fill="white"/>
<path d="M65.0549 113.119C63.7009 114.176 62.2376 115.093 60.6884 115.857L59.5268 116.371C59.6252 116.371 58.823 116.57 58.5203 116.658C57.6887 116.925 56.8357 117.124 55.9701 117.253C52.526 117.884 48.9833 117.798 45.5762 117C38.7314 115.372 32.4844 110.902 28.1936 105.055C23.6531 98.7479 20.8342 91.2023 21.784 83.8919C23.0402 74.2036 32.6244 67.7202 43.5972 66.8748C43.8789 66.8675 44.1569 66.8115 44.4183 66.7094C44.4183 66.6617 44.1686 66.647 43.7902 66.6727C31.6822 67.3196 20.8834 75.4606 21.1332 86.5198C21.1029 96.7521 27.4671 107.08 36.1925 112.983C40.5892 115.949 45.7124 117.794 50.9491 117.882C53.57 117.971 56.1876 117.628 58.6906 116.868C60.7452 116.331 63.2614 114.824 65.2251 113.247C65.5808 112.975 65.7662 112.773 65.7473 112.714C65.4924 112.803 65.2582 112.941 65.0587 113.119" fill="white"/>
<path d="M13.7703 89.1939C13.46 84.2247 14.493 78.8293 17.327 74.246C20.2292 69.6334 24.3534 66.3403 28.9507 63.8741C38.2738 59.1402 48.4445 58.7947 57.0299 59.4636C57.4953 59.4967 57.5709 59.4636 57.272 59.3497C56.8315 59.2219 56.3766 59.1466 55.9174 59.1255C47.4116 58.6256 37.3771 58.9968 28.2583 63.8557C23.7972 66.2741 19.7978 69.593 16.907 74.2019C14.2784 78.6764 13.0638 83.8035 13.4146 88.9439C13.4336 89.8995 13.6227 90.6861 13.7363 90.7816C13.8573 90.8037 13.8006 90.1678 13.7854 89.1828" fill="white"/>
<path d="M88.9306 80.8146C83.0128 75.1544 75.3394 71.1446 67.3935 68.4836C59.4477 65.8226 50.9494 64.6428 42.9695 65.7087C35.2923 66.3592 27.9404 69.6524 23.4264 75.397C22.787 76.1909 22.4881 76.9701 22.5864 77.0252C22.6848 77.0803 23.1994 76.4519 23.8199 75.6874C26.1416 72.9276 29.0461 70.6841 32.3371 69.1084C32.2615 69.2015 32.2463 69.2603 32.2917 69.2848C26.5518 72.1553 21.9129 77.0032 20.8157 82.9132C19.5405 88.849 21.194 95.3838 24.3156 100.974C24.6637 101.599 24.9778 102.044 25.0724 101.985C25.167 101.926 24.9361 101.408 24.5956 100.794C21.4021 95.0236 19.8281 88.2719 21.3416 82.3104C22.5978 76.3784 27.7361 71.6518 33.722 68.9614C34.1912 68.8144 34.6944 68.5645 35.2733 68.388C45.9284 64.6208 58.3239 66.0027 69.626 70.0199C77.6816 72.9602 85.2528 77.4295 90.4025 83.5049C92.9792 86.6805 94.5041 89.7053 94.7652 93.7703C95.2224 97.792 95.1244 101.855 94.4738 105.851C93.4598 112.158 91.2728 118.348 87.2847 123.523C83.9512 127.885 79.2745 131.208 74.7491 133.417C68.4719 136.523 61.9336 137.621 55.505 137.805C55.1077 137.805 55.0623 137.871 55.365 137.927C55.7286 137.986 56.0981 138.005 56.4661 137.982C62.8985 137.835 69.906 136.361 75.2978 133.303C86.4712 128.363 93.2857 117.072 94.6781 105.557C95.4961 101.133 95.6465 96.6161 95.1246 92.1495C94.7841 87.9816 92.3095 84.1334 88.9193 80.8146" fill="white"/>
<path d="M59.1127 7.70898H54.75V141.107H59.1127V7.70898Z" fill="#101F2D"/>
</svg>
