<svg width="25" height="24" viewBox="0 0 25 24" fill="none" xmlns="http://www.w3.org/2000/svg">
<g clip-path="url(#clip0_904_1334)">
<path d="M19.5 3H5.5C4.17441 3.00159 2.90356 3.52888 1.96622 4.46622C1.02888 5.40356 0.501588 6.67441 0.5 8H24.5C24.4984 6.67441 23.9711 5.40356 23.0338 4.46622C22.0964 3.52888 20.8256 3.00159 19.5 3Z" fill="#fff"/>
<path d="M0.5 15.9999C0.501588 17.3255 1.02888 18.5963 1.96622 19.5336C2.90356 20.471 4.17441 20.9983 5.5 20.9999H19.5C20.8256 20.9983 22.0964 20.471 23.0338 19.5336C23.9711 18.5963 24.4984 17.3255 24.5 15.9999V9.99988H0.5V15.9999ZM7.5 15.4999C7.5 15.7965 7.41203 16.0866 7.2472 16.3332C7.08238 16.5799 6.84811 16.7722 6.57403 16.8857C6.29994 16.9992 5.99834 17.0289 5.70736 16.971C5.41639 16.9132 5.14912 16.7703 4.93934 16.5605C4.72956 16.3507 4.5867 16.0835 4.52882 15.7925C4.47094 15.5015 4.50065 15.1999 4.61418 14.9258C4.72771 14.6518 4.91997 14.4175 5.16664 14.2527C5.41332 14.0878 5.70333 13.9999 6 13.9999C6.39782 13.9999 6.77936 14.1579 7.06066 14.4392C7.34196 14.7205 7.5 15.102 7.5 15.4999Z" fill="#fff"/>
</g>
<defs>
<clipPath id="clip0_904_1334">
<rect width="24" height="24" fill="white" transform="translate(0.5)"/>
</clipPath>
</defs>
</svg>
