<svg width="25" height="30" viewBox="0 0 25 30" fill="none" xmlns="http://www.w3.org/2000/svg">
<path d="M20.7259 2.67526L12.8948 0.06405C12.6384 -0.02135 12.3612 -0.02135 12.1048 0.06405L4.27369 2.67526C3.02859 3.08886 1.94549 3.88431 1.17829 4.94861C0.411086 6.01291 -0.00120207 7.29192 2.63261e-06 8.60392V15.0001C2.63261e-06 24.4537 11.4998 29.6748 11.9923 29.8923C12.1521 29.9633 12.325 30 12.4998 30C12.6746 30 12.8475 29.9633 13.0073 29.8923C13.4998 29.6748 24.9996 24.4537 24.9996 15.0001V8.60392C25.0008 7.29192 24.5885 6.01291 23.8213 4.94861C23.0541 3.88431 21.971 3.08886 20.7259 2.67526ZM18.3972 12.1464L13.0573 17.4863C12.8388 17.7063 12.5787 17.8806 12.2923 17.9993C12.0058 18.118 11.6986 18.1785 11.3886 18.1775H11.3473C11.0309 18.1727 10.7188 18.1037 10.4299 17.9748C10.1409 17.8459 9.88107 17.6597 9.6661 17.4275L6.78365 14.4276C6.65881 14.3118 6.55896 14.1717 6.49022 14.0159C6.42147 13.8601 6.38529 13.6919 6.38388 13.5216C6.38247 13.3513 6.41587 13.1825 6.48203 13.0256C6.54819 12.8687 6.64571 12.727 6.76861 12.6091C6.89151 12.4912 7.0372 12.3997 7.19674 12.3402C7.35627 12.2806 7.5263 12.2543 7.69637 12.2628C7.86644 12.2714 8.03298 12.3145 8.18577 12.3897C8.33855 12.4649 8.47437 12.5705 8.58487 12.7001L11.3898 15.6251L16.6247 10.3751C16.8605 10.1474 17.1762 10.0215 17.504 10.0243C17.8317 10.0272 18.1452 10.1586 18.377 10.3904C18.6087 10.6221 18.7402 10.9356 18.7431 11.2634C18.7459 11.5911 18.6199 11.9069 18.3922 12.1426L18.3972 12.1464Z" fill="#FBFBFB"/>
</svg>
