<svg width="25" height="24" viewBox="0 0 25 24" fill="none" xmlns="http://www.w3.org/2000/svg">
<g clip-path="url(#clip0_904_1305)">
<path d="M18.5 12C17.4464 12.0012 16.4111 11.7247 15.4984 11.1982C14.5858 10.6717 13.828 9.91396 13.3016 9.00128C12.7752 8.08859 12.4987 7.05326 12.5 5.99965C12.5013 4.94604 12.7803 3.91139 13.309 3H4.742L4.7 2.648C4.61382 1.9186 4.26306 1.24615 3.71419 0.758104C3.16532 0.270054 2.45647 0.000312836 1.722 0L1.5 0C1.23478 0 0.98043 0.105357 0.792893 0.292893C0.605357 0.48043 0.5 0.734784 0.5 1C0.5 1.26522 0.605357 1.51957 0.792893 1.70711C0.98043 1.89464 1.23478 2 1.5 2H1.722C1.96693 2.00003 2.20334 2.08996 2.38637 2.25272C2.56941 2.41547 2.68634 2.63975 2.715 2.883L4.091 14.583C4.23385 15.7998 4.81848 16.9218 5.73391 17.736C6.64934 18.5502 7.83185 19 9.057 19H19.5C19.7652 19 20.0196 18.8946 20.2071 18.7071C20.3946 18.5196 20.5 18.2652 20.5 18C20.5 17.7348 20.3946 17.4804 20.2071 17.2929C20.0196 17.1054 19.7652 17 19.5 17H9.057C8.43788 16.9985 7.83441 16.8054 7.32934 16.4473C6.82428 16.0893 6.44237 15.5837 6.236 15H18.157C19.3293 15.0001 20.4643 14.5882 21.3638 13.8364C22.2633 13.0846 22.87 12.0407 23.078 10.887L23.316 9.568C22.7597 10.3222 22.0341 10.9351 21.1976 11.3576C20.3611 11.78 19.4371 12 18.5 12Z" fill="#FBFBFB"/>
<path d="M7.5 24.0006C8.60456 24.0006 9.49999 23.1052 9.49999 22.0006C9.49999 20.896 8.60456 20.0006 7.5 20.0006C6.39543 20.0006 5.5 20.896 5.5 22.0006C5.5 23.1052 6.39543 24.0006 7.5 24.0006Z" fill="#FBFBFB"/>
<path d="M17.5 24.0006C18.6046 24.0006 19.5 23.1052 19.5 22.0006C19.5 20.896 18.6046 20.0006 17.5 20.0006C16.3954 20.0006 15.5 20.896 15.5 22.0006C15.5 23.1052 16.3954 24.0006 17.5 24.0006Z" fill="#FBFBFB"/>
<path d="M16.233 8.94571C16.405 9.13146 16.6129 9.2804 16.844 9.38353C17.0752 9.48666 17.3249 9.54183 17.578 9.54571H17.611C17.8591 9.54653 18.1048 9.49806 18.334 9.40313C18.5632 9.3082 18.7712 9.16869 18.946 8.99271L23.218 4.72071C23.4064 4.53267 23.5125 4.27748 23.5127 4.01127C23.513 3.74506 23.4075 3.48964 23.2195 3.30121C23.0315 3.11277 22.7763 3.00675 22.5101 3.00647C22.2439 3.00619 21.9884 3.11167 21.8 3.29971L17.613 7.49371L16.379 6.16971C16.1979 5.9757 15.9471 5.8616 15.6818 5.85251C15.4165 5.84341 15.1585 5.94007 14.9645 6.12121C14.7705 6.30235 14.6564 6.55314 14.6473 6.81841C14.6382 7.08368 14.7349 7.3417 14.916 7.53571L16.233 8.94571Z" fill="#FBFBFB"/>
</g>
<defs>
<clipPath id="clip0_904_1305">
<rect width="24" height="24" fill="white" transform="translate(0.5)"/>
</clipPath>
</defs>
</svg>
